<?xml version="1.0" standalone="no"?>
<!DOCTYPE svg PUBLIC "-//W3C//DTD SVG 20010904//EN"
 "http://www.w3.org/TR/2001/REC-SVG-20010904/DTD/svg10.dtd">
<svg version="1.0" xmlns="http://www.w3.org/2000/svg"
 width="678.000000pt" height="359.000000pt" viewBox="0 0 678.000000 359.000000"
 preserveAspectRatio="xMidYMid meet">

<g transform="translate(0.000000,359.000000) scale(0.100000,-0.100000)"
fill="#000000" stroke="none">
<path d="M1350 3501 c-43 -7 -1102 -286 -1158 -306 -8 -3 42 -59 127 -141 78
-75 141 -142 141 -150 0 -9 -17 -14 -52 -16 l-53 -3 -3 -92 -3 -93 168 0 168
0 1020 -987 1020 -987 7 -86 c10 -118 19 -140 60 -140 18 0 39 -4 45 -8 9 -6
13 -61 15 -197 l3 -190 45 -8 c83 -14 825 -20 965 -7 72 6 261 11 420 10 160
-1 298 2 308 5 14 6 17 20 17 82 0 75 0 75 45 125 47 53 75 122 75 187 0 128
-96 243 -226 272 -48 11 -64 10 -139 -9 -86 -22 -144 -51 -179 -91 -32 -36
-41 -26 -36 38 l5 58 969 1012 969 1011 134 0 c90 0 155 5 198 16 l65 16 0 89
0 89 -62 1 c-138 3 -143 -12 77 219 l195 205 -32 7 c-18 4 -391 12 -828 17
-437 6 -1051 15 -1365 21 -313 5 -1076 14 -1695 19 -619 6 -1181 13 -1250 15
-69 2 -150 1 -180 -3z"/>
</g>
</svg>
